<svg xmlns="http://www.w3.org/2000/svg" xmlns:xlink="http://www.w3.org/1999/xlink" width="474" height="432" viewBox="0 0 474 432">
  <defs>
    <clipPath id="clip-Web_1920_2">
      <rect width="474" height="432"/>
    </clipPath>
  </defs>
  <g id="Web_1920_2" data-name="Web 1920 – 2" clip-path="url(#clip-Web_1920_2)">
    <g id="Group_2" data-name="Group 2" transform="translate(-19 -15)">
      <path id="Path_17" data-name="Path 17" d="M276.715,242.123H294.32a21.04,21.04,0,0,1,21.04,21.04h0A21.039,21.039,0,0,0,336.4,284.2H404.91" fill="none" stroke="#06d8fa" stroke-miterlimit="10" stroke-width="1.276"/>
      <rect id="Rectangle_22" data-name="Rectangle 22" width="93.606" height="93.606" rx="46.803" transform="translate(183.109 181.853)" fill="none" stroke="#06d8fa" stroke-miterlimit="10" stroke-width="1.276"/>
      <rect id="Rectangle_23" data-name="Rectangle 23" width="33.845" height="33.845" rx="16.923" transform="translate(212.489 212.234)" fill="#06d8fa"/>
      <circle id="Ellipse_39" data-name="Ellipse 39" cx="5.865" cy="5.865" r="5.865" transform="translate(404.91 278.338)" fill="none" stroke="#06d8fa" stroke-miterlimit="10" stroke-width="1.276"/>
      <circle id="Ellipse_40" data-name="Ellipse 40" cx="5.865" cy="5.865" r="5.865" transform="translate(344.428 145.295)" fill="none" stroke="#06d8fa" stroke-miterlimit="10" stroke-width="1.276"/>
      <circle id="Ellipse_41" data-name="Ellipse 41" cx="5.865" cy="5.865" r="5.865" transform="translate(279.929 339.77)" fill="none" stroke="#06d8fa" stroke-miterlimit="10" stroke-width="1.276"/>
      <path id="Path_18" data-name="Path 18" d="M254.955,275.459v19.635a15.42,15.42,0,0,0,15.42,15.42h0a15.419,15.419,0,0,1,15.419,15.419V339.77" fill="none" stroke="#06d8fa" stroke-miterlimit="10" stroke-width="1.276"/>
      <path id="Path_19" data-name="Path 19" d="M210.7,181.7V168.049a16.321,16.321,0,0,0-16.32-16.321h0a16.321,16.321,0,0,1-16.321-16.32V115.424" fill="none" stroke="#06d8fa" stroke-miterlimit="10" stroke-width="1.276"/>
      <circle id="Ellipse_42" data-name="Ellipse 42" cx="4.549" cy="4.549" r="4.549" transform="translate(173.514 106.325)" fill="none" stroke="#06d8fa" stroke-miterlimit="10" stroke-width="1.276"/>
      <circle id="Ellipse_43" data-name="Ellipse 43" cx="4.457" cy="4.457" r="4.457" transform="translate(124.961 171.166)" fill="none" stroke="#06d8fa" stroke-miterlimit="10" stroke-width="1.276"/>
      <circle id="Ellipse_44" data-name="Ellipse 44" cx="4.457" cy="4.457" r="4.457" transform="translate(119.729 314.597)" fill="none" stroke="#06d8fa" stroke-miterlimit="10" stroke-width="1.276"/>
      <circle id="Ellipse_45" data-name="Ellipse 45" cx="4.457" cy="4.457" r="4.457" transform="translate(200.472 375.405)" fill="none" stroke="#06d8fa" stroke-miterlimit="10" stroke-width="1.276"/>
      <circle id="Ellipse_46" data-name="Ellipse 46" cx="4.457" cy="4.457" r="4.457" transform="translate(83.36 256.78)" fill="none" stroke="#06d8fa" stroke-miterlimit="10" stroke-width="1.276"/>
      <path id="Path_20" data-name="Path 20" d="M182.745,199.058H167.824a11.717,11.717,0,0,1-11.717-11.717h0a11.717,11.717,0,0,0-11.717-11.718H133.875" fill="none" stroke="#06d8fa" stroke-miterlimit="10" stroke-width="1.276"/>
      <path id="Path_21" data-name="Path 21" d="M271.837,192.267h1.642a20.553,20.553,0,0,0,20.553-20.554h0a20.553,20.553,0,0,1,20.554-20.553H343.26" fill="none" stroke="#06d8fa" stroke-miterlimit="10" stroke-width="1.276"/>
      <path id="Path_22" data-name="Path 22" d="M201.5,275.459v.116a14.493,14.493,0,0,1-14.493,14.493h-8.356a14.492,14.492,0,0,0-14.492,14.492h0a14.492,14.492,0,0,1-14.493,14.492H128.643" fill="none" stroke="#06d8fa" stroke-miterlimit="10" stroke-width="1.276"/>
      <path id="Path_23" data-name="Path 23" d="M183.109,233.066H164.761a14.086,14.086,0,0,0-14.086,14.085h0a14.086,14.086,0,0,1-14.085,14.086H91.213" fill="none" stroke="#06d8fa" stroke-miterlimit="10" stroke-width="1.276"/>
      <path id="Path_24" data-name="Path 24" d="M224.255,275.459v29.474a9.664,9.664,0,0,1-9.663,9.664h0a9.663,9.663,0,0,0-9.663,9.663V375.4" fill="none" stroke="#06d8fa" stroke-miterlimit="10" stroke-width="1.276"/>
      <circle id="Ellipse_47" data-name="Ellipse 47" cx="4.457" cy="4.457" r="4.457" transform="translate(260.421 58.449)" fill="none" stroke="#06d8fa" stroke-miterlimit="10" stroke-width="1.276"/>
      <path id="Path_25" data-name="Path 25" d="M245.551,181.853V152.379a9.663,9.663,0,0,1,9.663-9.663h0a9.664,9.664,0,0,0,9.664-9.664V67.363" fill="none" stroke="#06d8fa" stroke-miterlimit="10" stroke-width="1.276"/>
    </g>
  </g>
</svg>
