<svg xmlns="http://www.w3.org/2000/svg" xmlns:xlink="http://www.w3.org/1999/xlink" width="47" height="46" viewBox="0 0 47 46">
  <defs>
    <clipPath id="clip-logo_1">
      <rect width="47" height="46"/>
    </clipPath>
  </defs>
  <g id="logo_1" data-name="logo – 1" clip-path="url(#clip-logo_1)">
    <g id="Group_3" data-name="Group 3" transform="translate(-82.36 -56.449)">
      <path id="Path_17" data-name="Path 17" d="M276.715,242.123h2.322a2.775,2.775,0,0,1,2.775,2.775h0a2.775,2.775,0,0,0,2.775,2.775h9.037" transform="translate(-167.851 -159.447)" fill="none" stroke="#06d8fa" stroke-miterlimit="10" stroke-width="1.276"/>
      <rect id="Rectangle_22" data-name="Rectangle 22" width="12.347" height="12.347" rx="6.173" transform="translate(96.517 74.726)" fill="none" stroke="#06d8fa" stroke-miterlimit="10" stroke-width="1.276"/>
      <rect id="Rectangle_23" data-name="Rectangle 23" width="4.464" height="4.464" rx="2.232" transform="translate(100.393 78.734)" fill="#06d8fa"/>
      <circle id="Ellipse_39" data-name="Ellipse 39" cx="0.774" cy="0.774" r="0.774" transform="translate(125.773 87.453)" fill="none" stroke="#06d8fa" stroke-miterlimit="10" stroke-width="1.276"/>
      <circle id="Ellipse_40" data-name="Ellipse 40" cx="0.774" cy="0.774" r="0.774" transform="translate(117.796 69.904)" fill="none" stroke="#06d8fa" stroke-miterlimit="10" stroke-width="1.276"/>
      <circle id="Ellipse_41" data-name="Ellipse 41" cx="0.774" cy="0.774" r="0.774" transform="translate(109.288 95.556)" fill="none" stroke="#06d8fa" stroke-miterlimit="10" stroke-width="1.276"/>
      <path id="Path_18" data-name="Path 18" d="M254.955,275.459v2.59a2.034,2.034,0,0,0,2.034,2.034h0a2.034,2.034,0,0,1,2.034,2.034v1.825" transform="translate(-148.961 -188.386)" fill="none" stroke="#06d8fa" stroke-miterlimit="10" stroke-width="1.276"/>
      <path id="Path_19" data-name="Path 19" d="M182.368,124.166v-1.8a2.153,2.153,0,0,0-2.153-2.153h0a2.153,2.153,0,0,1-2.153-2.153v-2.636" transform="translate(-82.211 -49.46)" fill="none" stroke="#06d8fa" stroke-miterlimit="10" stroke-width="1.276"/>
      <circle id="Ellipse_42" data-name="Ellipse 42" cx="0.6" cy="0.6" r="0.6" transform="translate(95.252 64.764)" fill="none" stroke="#06d8fa" stroke-miterlimit="10" stroke-width="1.276"/>
      <circle id="Ellipse_43" data-name="Ellipse 43" cx="0.588" cy="0.588" r="0.588" transform="translate(88.848 73.317)" fill="none" stroke="#06d8fa" stroke-miterlimit="10" stroke-width="1.276"/>
      <circle id="Ellipse_44" data-name="Ellipse 44" cx="0.588" cy="0.588" r="0.588" transform="translate(88.157 92.236)" fill="none" stroke="#06d8fa" stroke-miterlimit="10" stroke-width="1.276"/>
      <circle id="Ellipse_45" data-name="Ellipse 45" cx="0.588" cy="0.588" r="0.588" transform="translate(98.808 100.256)" fill="none" stroke="#06d8fa" stroke-miterlimit="10" stroke-width="1.276"/>
      <circle id="Ellipse_46" data-name="Ellipse 46" cx="0.588" cy="0.588" r="0.588" transform="translate(83.36 84.609)" fill="none" stroke="#06d8fa" stroke-miterlimit="10" stroke-width="1.276"/>
      <path id="Path_20" data-name="Path 20" d="M140.321,178.714h-1.968a1.546,1.546,0,0,1-1.546-1.546h0a1.546,1.546,0,0,0-1.545-1.546h-1.387" transform="translate(-43.852 -101.718)" fill="none" stroke="#06d8fa" stroke-miterlimit="10" stroke-width="1.276"/>
      <path id="Path_21" data-name="Path 21" d="M271.837,156.582h.217a2.711,2.711,0,0,0,2.711-2.711h0a2.711,2.711,0,0,1,2.711-2.711h3.782" transform="translate(-163.616 -80.482)" fill="none" stroke="#06d8fa" stroke-miterlimit="10" stroke-width="1.276"/>
      <path id="Path_22" data-name="Path 22" d="M138.253,275.459v.015a1.912,1.912,0,0,1-1.912,1.912h-1.1a1.911,1.911,0,0,0-1.912,1.911h0a1.912,1.912,0,0,1-1.912,1.911h-2.773" transform="translate(-39.31 -188.386)" fill="none" stroke="#06d8fa" stroke-miterlimit="10" stroke-width="1.276"/>
      <path id="Path_23" data-name="Path 23" d="M103.334,233.066h-2.42a1.858,1.858,0,0,0-1.858,1.858h0a1.858,1.858,0,0,1-1.858,1.858H91.213" transform="translate(-6.817 -151.585)" fill="none" stroke="#06d8fa" stroke-miterlimit="10" stroke-width="1.276"/>
      <path id="Path_24" data-name="Path 24" d="M207.478,275.459v3.888a1.275,1.275,0,0,1-1.275,1.275h0a1.274,1.274,0,0,0-1.275,1.275v6.746" transform="translate(-105.534 -188.386)" fill="none" stroke="#06d8fa" stroke-miterlimit="10" stroke-width="1.276"/>
      <circle id="Ellipse_47" data-name="Ellipse 47" cx="0.588" cy="0.588" r="0.588" transform="translate(106.715 58.449)" fill="none" stroke="#06d8fa" stroke-miterlimit="10" stroke-width="1.276"/>
      <path id="Path_25" data-name="Path 25" d="M245.551,82.464V78.577a1.275,1.275,0,0,1,1.275-1.275h0a1.275,1.275,0,0,0,1.275-1.275V67.363" transform="translate(-140.797 -7.738)" fill="none" stroke="#06d8fa" stroke-miterlimit="10" stroke-width="1.276"/>
    </g>
  </g>
</svg>
